<svg width="14" height="4" viewBox="0 0 14 4" fill="none" xmlns="http://www.w3.org/2000/svg">
<path d="M2 3.5C1.60218 3.5 1.22064 3.34196 0.93934 3.06066C0.658035 2.77936 0.5 2.39782 0.5 2C0.5 1.60218 0.658035 1.22064 0.93934 0.93934C1.22064 0.658035 1.60218 0.5 2 0.5C2.39782 0.5 2.77936 0.658035 3.06066 0.93934C3.34196 1.22064 3.5 1.60218 3.5 2C3.5 2.39782 3.34196 2.77936 3.06066 3.06066C2.77936 3.34196 2.39782 3.5 2 3.5ZM7 3.5C6.60218 3.5 6.22064 3.34196 5.93934 3.06066C5.65804 2.77936 5.5 2.39782 5.5 2C5.5 1.60218 5.65804 1.22064 5.93934 0.93934C6.22064 0.658035 6.60218 0.5 7 0.5C7.39782 0.5 7.77936 0.658035 8.06066 0.93934C8.34196 1.22064 8.5 1.60218 8.5 2C8.5 2.39782 8.34196 2.77936 8.06066 3.06066C7.77936 3.34196 7.39782 3.5 7 3.5ZM12 3.5C11.6022 3.5 11.2206 3.34196 10.9393 3.06066C10.658 2.77936 10.5 2.39782 10.5 2C10.5 1.60218 10.658 1.22064 10.9393 0.93934C11.2206 0.658035 11.6022 0.5 12 0.5C12.3978 0.5 12.7794 0.658035 13.0607 0.93934C13.342 1.22064 13.5 1.60218 13.5 2C13.5 2.39782 13.342 2.77936 13.0607 3.06066C12.7794 3.34196 12.3978 3.5 12 3.5Z" fill="#C8C8C8"/>
</svg>
